<?xml version="1.0" standalone="no"?>
<!DOCTYPE svg PUBLIC "-//W3C//DTD SVG 20010904//EN"
 "http://www.w3.org/TR/2001/REC-SVG-20010904/DTD/svg10.dtd">
<svg version="1.0" xmlns="http://www.w3.org/2000/svg"
 width="500.000000pt" height="500.000000pt" viewBox="0 0 500.000000 500.000000"
 preserveAspectRatio="xMidYMid meet">

<g transform="translate(0.000000,500.000000) scale(0.100000,-0.100000)"
fill="#000000" stroke="none">
<path d="M2368 4051 c-53 -21 -122 -53 -154 -71 l-57 -32 6 31 c4 16 2 33 -3
36 -5 3 -34 -17 -66 -45 -53 -46 -61 -50 -108 -50 -33 0 -62 -7 -82 -19 -34
-21 -84 -80 -84 -99 0 -13 -12 -15 -90 -13 -69 2 -77 -3 -241 -158 -112 -106
-130 -128 -149 -179 -18 -48 -41 -77 -144 -182 -168 -170 -185 -207 -230 -489
l-25 -153 38 -77 c39 -76 82 -203 95 -274 6 -34 5 -39 -13 -44 -18 -5 -21 -13
-21 -63 0 -52 11 -83 89 -262 49 -112 101 -238 116 -280 15 -43 33 -78 40 -78
21 0 35 -25 56 -100 41 -150 101 -204 240 -212 65 -4 84 -10 135 -41 54 -33
150 -64 162 -53 5 6 93 -37 205 -101 44 -24 85 -42 93 -39 9 3 14 -1 14 -14 0
-23 4 -23 155 -11 56 5 137 5 185 -1 47 -5 121 -11 165 -13 57 -4 94 -12 131
-30 59 -29 84 -32 84 -9 0 17 46 39 106 49 39 6 43 4 64 -24 27 -38 40 -39 40
-3 0 38 17 52 63 52 36 0 39 2 33 24 -5 20 5 37 51 90 31 37 68 73 81 82 22
15 25 14 46 -5 12 -12 25 -21 29 -21 10 0 -12 52 -30 73 -24 25 -3 41 52 42
28 0 45 4 45 12 0 17 33 33 67 33 34 0 53 16 53 45 0 12 30 59 68 106 37 46
89 121 115 165 46 80 131 263 124 270 -8 8 -50 -32 -88 -83 -31 -41 -46 -54
-60 -50 -12 3 -19 0 -19 -10 0 -8 -4 -12 -9 -8 -6 3 -85 -51 -178 -121 -190
-143 -427 -304 -448 -304 -7 0 -21 7 -30 16 -15 15 -17 15 -35 -1 -19 -17 -50
-15 -50 5 0 17 -48 11 -59 -8 -9 -15 -12 -15 -21 -2 -8 13 -10 13 -10 -2 0
-10 -7 -18 -15 -18 -9 0 -18 -7 -22 -16 -5 -13 -10 -11 -29 13 -23 27 -23 28
-24 5 0 -13 -4 -20 -10 -17 -5 3 -10 -3 -10 -14 0 -30 -55 -71 -98 -71 -20 0
-65 -6 -100 -14 -56 -11 -72 -11 -137 5 -40 9 -115 22 -166 28 -207 26 -239
31 -291 51 -29 11 -68 29 -87 41 -30 18 -33 22 -18 31 9 5 17 15 17 22 0 11
-6 11 -37 1 l-37 -13 -194 181 c-308 287 -350 339 -422 520 -18 47 -26 56 -41
52 -14 -5 -22 1 -30 19 -14 30 -5 60 16 52 18 -7 18 -14 -1 122 -16 112 -16
114 5 160 16 35 28 104 46 269 28 242 50 331 111 441 54 96 145 203 278 325
97 89 151 129 262 194 263 155 363 190 572 200 87 4 128 10 138 20 18 19 19
93 1 93 -8 0 -34 13 -58 30 -24 16 -48 30 -54 30 -5 -1 -54 -18 -107 -39z
m-1139 -2041 c16 -33 26 -60 22 -60 -14 0 -38 34 -43 60 -3 14 -9 33 -13 43
-4 9 -4 17 -1 17 3 0 19 -27 35 -60z m-57 14 l7 -29 -19 25 c-22 29 -25 43 -8
38 7 -3 15 -18 20 -34z"/>
<path d="M2898 3973 c-12 -11 -35 -16 -78 -17 -52 -1 -65 -5 -81 -25 -10 -13
-19 -31 -19 -41 0 -52 102 -116 203 -128 53 -7 78 -18 174 -79 62 -40 189
-126 282 -192 93 -67 178 -121 188 -121 10 1 29 7 43 15 37 21 40 19 40 -30 0
-74 36 -153 96 -212 60 -58 69 -82 61 -156 -6 -44 -3 -57 25 -105 17 -31 48
-72 69 -93 21 -21 39 -48 41 -61 2 -16 9 -23 24 -22 21 0 22 -3 19 -105 -2
-58 -1 -92 1 -76 21 134 36 210 48 245 16 47 10 51 -20 13 l-22 -27 -6 94 c-4
52 -14 149 -22 215 l-15 119 -156 251 c-129 208 -167 262 -227 320 -154 148
-360 235 -561 235 -71 0 -94 -4 -107 -17z"/>
<path d="M2451 3359 c-255 -23 -432 -113 -501 -255 -19 -40 -24 -66 -24 -141
-1 -112 11 -133 104 -180 102 -53 187 -42 248 33 77 93 85 258 13 277 -30 7
-38 -10 -43 -90 -3 -40 -11 -80 -19 -89 -20 -24 -105 -64 -138 -64 -16 0 -39
8 -51 18 -19 15 -22 28 -22 84 0 36 7 81 15 100 37 88 141 159 283 195 86 21
365 26 385 6 7 -7 22 -13 34 -13 28 0 125 -41 151 -64 80 -68 84 -74 84 -114
0 -22 7 -56 15 -75 20 -47 19 -104 0 -115 -9 -4 -18 -26 -22 -48 -3 -21 -23
-67 -46 -102 -36 -57 -41 -61 -57 -47 -9 8 -27 15 -39 15 -13 0 -35 9 -50 19
-20 15 -43 19 -92 19 -35 0 -83 5 -107 12 -48 15 -53 32 -28 97 8 21 18 83 21
137 6 86 10 102 31 123 13 12 32 23 43 23 19 0 41 26 41 49 0 45 -113 57 -170
19 -48 -32 -78 -98 -91 -198 -14 -106 -65 -270 -84 -270 -29 0 -145 -60 -185
-96 -57 -52 -73 -87 -68 -146 6 -56 29 -86 98 -126 25 -14 46 -26 47 -27 2 -1
-8 -28 -21 -61 -14 -33 -34 -111 -46 -174 -11 -63 -28 -136 -36 -162 l-15 -46
-55 25 c-46 21 -67 24 -116 21 -77 -6 -88 -19 -88 -111 0 -134 34 -187 120
-187 37 0 57 7 91 31 24 18 53 43 64 56 l20 24 95 -44 c125 -58 165 -67 312
-67 135 0 243 18 292 49 17 11 58 34 91 52 67 35 115 82 115 110 0 11 18 49
40 85 37 61 40 72 40 138 0 39 -5 111 -10 160 -11 108 -51 197 -116 263 l-44
43 45 56 c56 69 98 151 120 235 22 83 15 218 -14 284 -41 93 -180 193 -316
226 -27 7 -59 18 -70 26 -22 15 -121 15 -274 2z m144 -724 c58 -15 175 -72
175 -84 0 -4 -24 -21 -52 -39 -56 -33 -133 -56 -235 -70 l-62 -9 21 30 c16 23
19 38 14 73 -5 39 -2 50 22 80 31 39 36 40 117 19z m-306 -97 c-15 -40 -28
-81 -29 -90 0 -26 -25 -22 -62 11 -29 26 -31 31 -21 54 10 21 111 93 134 96 4
1 -6 -32 -22 -71z m606 -126 c53 -81 69 -146 68 -282 0 -69 -5 -143 -12 -166
-25 -90 -84 -144 -211 -191 -68 -25 -87 -28 -205 -28 -135 0 -237 21 -293 61
l-23 16 22 36 c12 21 27 69 34 109 7 39 27 107 43 150 17 43 38 103 49 133
l18 54 95 12 c115 15 234 52 315 98 33 19 63 35 67 35 4 1 19 -16 33 -37z
m-867 -593 c33 -13 27 -32 -23 -68 -42 -30 -44 -31 -55 -12 -5 11 -10 38 -10
61 l0 42 33 -7 c17 -4 42 -11 55 -16z"/>
</g>
</svg>
